<svg xmlns="http://www.w3.org/2000/svg" viewBox="0 0 64 64" fill="none">
  <!-- Background circle -->
  <circle cx="32" cy="32" r="32" fill="#00a3e0"/>
  
  <!-- Water droplets -->
  <path d="M 20 16 Q 20 12 22 12 Q 24 12 24 16 Q 24 18 22 20 Q 20 18 20 16 Z" fill="#ffffff" opacity="0.9"/>
  <path d="M 32 14 Q 32 10 34 10 Q 36 10 36 14 Q 36 16 34 18 Q 32 16 32 14 Z" fill="#ffffff" opacity="0.9"/>
  <path d="M 44 16 Q 44 12 46 12 Q 48 12 48 16 Q 48 18 46 20 Q 44 18 44 16 Z" fill="#ffffff" opacity="0.9"/>
  
  <!-- Car silhouette -->
  <g fill="#ffffff">
    <!-- Car body -->
    <path d="M 16 40 L 20 32 L 26 28 L 38 28 L 44 32 L 48 40 L 48 44 L 46 44 L 46 42 C 46 40.5 44.5 39 43 39 C 41.5 39 40 40.5 40 42 L 40 44 L 24 44 L 24 42 C 24 40.5 22.5 39 21 39 C 19.5 39 18 40.5 18 42 L 18 44 L 16 44 Z"/>
    <!-- Windows -->
    <path d="M 22 32 L 25 30 L 30 30 L 30 34 L 22 34 Z" fill="#00a3e0"/>
    <path d="M 34 30 L 39 30 L 42 32 L 42 34 L 34 34 Z" fill="#00a3e0"/>
    <!-- Wheels -->
    <circle cx="21" cy="42" r="2.5" fill="#ffffff"/>
    <circle cx="43" cy="42" r="2.5" fill="#ffffff"/>
    <circle cx="21" cy="42" r="1.2" fill="#00a3e0"/>
    <circle cx="43" cy="42" r="1.2" fill="#00a3e0"/>
  </g>
</svg>
