<svg xmlns="http://www.w3.org/2000/svg" viewBox="0 0 16 16" fill="none">
  <!-- Background circle -->
  <circle cx="8" cy="8" r="8" fill="#00a3e0"/>
  
  <!-- Water droplets (simplified) -->
  <circle cx="5" cy="4" r="0.8" fill="#ffffff" opacity="0.9"/>
  <circle cx="8" cy="3.5" r="0.8" fill="#ffffff" opacity="0.9"/>
  <circle cx="11" cy="4" r="0.8" fill="#ffffff" opacity="0.9"/>
  
  <!-- Car silhouette (simplified) -->
  <g fill="#ffffff">
    <!-- Car body -->
    <path d="M 4 10 L 5 8 L 6.5 7 L 9.5 7 L 11 8 L 12 10 L 12 11 L 11.5 11 C 11.5 10.5 11.2 10 10.7 10 C 10.2 10 10 10.5 10 11 L 6 11 C 6 10.5 5.8 10 5.3 10 C 4.8 10 4.5 10.5 4.5 11 L 4 11 Z"/>
    <!-- Windows -->
    <rect x="5.5" y="8" width="2" height="1.5" fill="#00a3e0"/>
    <rect x="8.5" y="8" width="2" height="1.5" fill="#00a3e0"/>
    <!-- Wheels -->
    <circle cx="5.3" cy="10.5" r="0.6" fill="#ffffff"/>
    <circle cx="10.7" cy="10.5" r="0.6" fill="#ffffff"/>
  </g>
</svg>
