<svg xmlns="http://www.w3.org/2000/svg" viewBox="0 0 32 32" fill="none">
  <!-- Background circle -->
  <circle cx="16" cy="16" r="16" fill="#00a3e0"/>
  
  <!-- Water droplets -->
  <path d="M 10 8 Q 10 6 11 6 Q 12 6 12 8 Q 12 9 11 10 Q 10 9 10 8 Z" fill="#ffffff" opacity="0.9"/>
  <path d="M 16 7 Q 16 5 17 5 Q 18 5 18 7 Q 18 8 17 9 Q 16 8 16 7 Z" fill="#ffffff" opacity="0.9"/>
  <path d="M 22 8 Q 22 6 23 6 Q 24 6 24 8 Q 24 9 23 10 Q 22 9 22 8 Z" fill="#ffffff" opacity="0.9"/>
  
  <!-- Car silhouette -->
  <g fill="#ffffff">
    <!-- Car body -->
    <path d="M 8 20 L 10 16 L 13 14 L 19 14 L 22 16 L 24 20 L 24 22 L 23 22 L 23 21 C 23 20.2 22.3 19.5 21.5 19.5 C 20.7 19.5 20 20.2 20 21 L 20 22 L 12 22 L 12 21 C 12 20.2 11.3 19.5 10.5 19.5 C 9.7 19.5 9 20.2 9 21 L 9 22 L 8 22 Z"/>
    <!-- Windows -->
    <path d="M 11 16 L 12.5 15 L 15 15 L 15 17 L 11 17 Z" fill="#00a3e0"/>
    <path d="M 17 15 L 19.5 15 L 21 16 L 21 17 L 17 17 Z" fill="#00a3e0"/>
    <!-- Wheels -->
    <circle cx="10.5" cy="21" r="1.2" fill="#ffffff"/>
    <circle cx="21.5" cy="21" r="1.2" fill="#ffffff"/>
    <circle cx="10.5" cy="21" r="0.6" fill="#00a3e0"/>
    <circle cx="21.5" cy="21" r="0.6" fill="#00a3e0"/>
  </g>
</svg>
